<svg width="358" height="304" viewBox="0 0 358 304" fill="none" xmlns="http://www.w3.org/2000/svg">
<rect x="0.681641" y="244" width="170" height="60" rx="10" fill="url(#paint0_linear_1_1021)"/>
<path d="M67.8379 279V267.625H71.7363C73.0228 267.625 74.002 267.883 74.6738 268.398C75.3457 268.914 75.6816 269.682 75.6816 270.703C75.6816 271.224 75.541 271.693 75.2598 272.109C74.9785 272.526 74.5671 272.849 74.0254 273.078C74.64 273.245 75.1139 273.56 75.4473 274.023C75.7858 274.482 75.9551 275.034 75.9551 275.68C75.9551 276.747 75.6113 277.568 74.9238 278.141C74.2415 278.714 73.2624 279 71.9863 279H67.8379ZM69.8145 273.867V277.422H72.0098C72.6296 277.422 73.1139 277.268 73.4629 276.961C73.8118 276.654 73.9863 276.227 73.9863 275.68C73.9863 274.497 73.3822 273.893 72.1738 273.867H69.8145ZM69.8145 272.414H71.752C72.3665 272.414 72.8457 272.276 73.1895 272C73.5384 271.719 73.7129 271.323 73.7129 270.812C73.7129 270.25 73.5514 269.844 73.2285 269.594C72.9108 269.344 72.4134 269.219 71.7363 269.219H69.8145V272.414ZM86.252 267.625V275.227C86.252 276.435 85.8639 277.393 85.0879 278.102C84.3171 278.805 83.2884 279.156 82.002 279.156C80.6999 279.156 79.666 278.81 78.9004 278.117C78.1348 277.419 77.752 276.453 77.752 275.219V267.625H79.7207V275.234C79.7207 275.995 79.9134 276.576 80.2988 276.977C80.6842 277.378 81.252 277.578 82.002 277.578C83.5228 277.578 84.2832 276.776 84.2832 275.172V267.625H86.252ZM92.0801 273.016L94.6973 267.625H96.8848L93.0723 274.812V279H91.0879V274.812L87.2676 267.625H89.4629L92.0801 273.016ZM111.127 279H109.15L104.08 270.93V279H102.104V267.625H104.08L109.166 275.727V267.625H111.127V279ZM122.541 273.609C122.541 274.724 122.348 275.703 121.963 276.547C121.577 277.385 121.025 278.031 120.307 278.484C119.593 278.932 118.77 279.156 117.838 279.156C116.916 279.156 116.093 278.932 115.369 278.484C114.65 278.031 114.093 277.388 113.697 276.555C113.307 275.721 113.109 274.76 113.104 273.672V273.031C113.104 271.922 113.299 270.943 113.689 270.094C114.085 269.245 114.64 268.596 115.354 268.148C116.072 267.695 116.895 267.469 117.822 267.469C118.749 267.469 119.57 267.693 120.283 268.141C121.002 268.583 121.557 269.224 121.947 270.062C122.338 270.896 122.536 271.867 122.541 272.977V273.609ZM120.564 273.016C120.564 271.755 120.325 270.789 119.846 270.117C119.372 269.445 118.697 269.109 117.822 269.109C116.968 269.109 116.299 269.445 115.814 270.117C115.335 270.784 115.09 271.729 115.08 272.953V273.609C115.08 274.859 115.322 275.826 115.807 276.508C116.296 277.19 116.973 277.531 117.838 277.531C118.713 277.531 119.385 277.198 119.854 276.531C120.327 275.865 120.564 274.891 120.564 273.609V273.016ZM133.432 276.188L135.182 267.625H137.143L134.518 279H132.627L130.463 270.695L128.252 279H126.354L123.729 267.625H125.689L127.455 276.172L129.627 267.625H131.283L133.432 276.188Z" fill="white"/>
<path d="M55.7616 269C55.5889 268.701 55.3414 268.451 55.0435 268.276C54.7455 268.101 54.4073 268.006 54.0616 268H41.2616L40.6816 265.74C40.623 265.522 40.4923 265.33 40.3107 265.196C40.1291 265.061 39.9074 264.992 39.6816 265H37.6816C37.4164 265 37.1621 265.105 36.9745 265.293C36.787 265.481 36.6816 265.735 36.6816 266C36.6816 266.265 36.787 266.52 36.9745 266.707C37.1621 266.895 37.4164 267 37.6816 267H38.9216L41.6816 277.26C41.7402 277.478 41.871 277.67 42.0526 277.805C42.2341 277.939 42.4559 278.008 42.6816 278H51.6816C51.8663 278 52.0472 277.948 52.2043 277.851C52.3614 277.754 52.4885 277.615 52.5716 277.45L55.8516 270.89C55.9938 270.592 56.06 270.264 56.0443 269.934C56.0286 269.604 55.9315 269.283 55.7616 269Z" fill="white"/>
<path d="M42.1816 283C43.0101 283 43.6816 282.328 43.6816 281.5C43.6816 280.672 43.0101 280 42.1816 280C41.3532 280 40.6816 280.672 40.6816 281.5C40.6816 282.328 41.3532 283 42.1816 283Z" fill="white"/>
<path d="M52.1816 283C53.0101 283 53.6816 282.328 53.6816 281.5C53.6816 280.672 53.0101 280 52.1816 280C51.3532 280 50.6816 280.672 50.6816 281.5C50.6816 282.328 51.3532 283 52.1816 283Z" fill="white"/>
<path d="M22.6816 60H31.7216V4H23.8816V37.52L14.8416 4H3.80164V60H11.7216V19.44L22.6816 60ZM38.0223 60H46.8223V4H38.0223V60ZM73.3366 60H82.3766L70.1366 28.96L82.3766 4H73.5766L62.0566 28.4V4H53.2566V60H62.0566V42.8L64.7766 37.68L73.3366 60ZM95.1816 12H110.382V4H86.3816V60H110.382V52H95.1816V35.6H107.262V27.6H95.1816V12ZM155.617 60C154.737 57.92 154.657 55.92 154.657 53.2V44.56C154.657 38.72 153.217 34.48 148.817 32.64C152.737 30.8 154.577 27.04 154.577 21.28V16.88C154.577 8.24 150.657 4 141.537 4H128.257V60H137.057V37.2H140.097C144.097 37.2 145.857 39.12 145.857 44.32V53.12C145.857 57.68 146.177 58.56 146.657 60H155.617ZM141.297 12C144.417 12 145.777 13.76 145.777 17.76V23.28C145.777 27.76 143.777 29.2 140.497 29.2H137.057V12H141.297ZM169.244 12H184.444V4H160.444V60H184.444V52H169.244V35.6H181.324V27.6H169.244V12ZM209.417 4H196.537L187.577 60H195.657L197.177 49.84H207.977L209.497 60H218.377L209.417 4ZM202.537 13.92L206.777 42.24H198.297L202.537 13.92ZM239.597 39.12V47.12C239.597 51.12 237.837 52.56 235.037 52.56C232.237 52.56 230.477 51.12 230.477 47.12V16.88C230.477 12.88 232.237 11.36 235.037 11.36C237.837 11.36 239.597 12.88 239.597 16.88V22.88H247.917V17.44C247.917 8.48 243.437 3.36 234.797 3.36C226.157 3.36 221.677 8.48 221.677 17.44V46.56C221.677 55.52 226.157 60.64 234.797 60.64C243.437 60.64 247.917 55.52 247.917 46.56V39.12H239.597ZM250.697 12H259.897V60H268.697V12H277.897V4H250.697V12Z" fill="#FA804C"/>
<path d="M3.88164 140H12.6816V84H3.88164V140ZM37.916 140H46.956V84H39.116V117.52L30.076 84H19.036V140H26.956V99.44L37.916 140ZM62.0566 92H76.5366V84H53.2566V140H62.0566V116.88H73.4166V108.88H62.0566V92ZM80.7566 140H89.5566V84H80.7566V140ZM114.791 140H123.831V84H115.991V117.52L106.951 84H95.911V140H103.831V99.44L114.791 140ZM130.132 140H138.932V84H130.132V140ZM142.806 92H152.006V140H160.806V92H170.006V84H142.806V92ZM182.122 140H190.922V121.44L202.042 84H193.642L186.922 109.52L180.202 84H171.002L182.122 121.44V140ZM245.382 140C244.502 137.92 244.422 135.92 244.422 133.2V124.56C244.422 118.72 242.982 114.48 238.582 112.64C242.502 110.8 244.342 107.04 244.342 101.28V96.88C244.342 88.24 240.422 84 231.302 84H218.022V140H226.822V117.2H229.862C233.862 117.2 235.622 119.12 235.622 124.32V133.12C235.622 137.68 235.942 138.56 236.422 140H245.382ZM231.062 92C234.182 92 235.542 93.76 235.542 97.76V103.28C235.542 107.76 233.542 109.2 230.262 109.2H226.822V92H231.062ZM249.81 84V126.64C249.81 135.6 254.29 140.72 262.93 140.72C271.57 140.72 276.05 135.6 276.05 126.64V84H267.73V127.2C267.73 131.2 265.97 132.64 263.17 132.64C260.37 132.64 258.61 131.2 258.61 127.2V84H249.81ZM300.885 140H309.925V84H302.085V117.52L293.045 84H282.005V140H289.925V99.44L300.885 140ZM346.087 97.76C346.087 113.92 328.647 116.64 328.647 133.12V140H354.087V132H337.447C337.367 131.6 337.367 131.2 337.367 130.8C337.367 121.6 354.887 115.04 354.887 97.44C354.887 88.48 350.407 83.36 341.767 83.36C333.127 83.36 328.647 88.48 328.647 97.44V102.88H336.967V96.88C336.967 92.88 338.727 91.36 341.527 91.36C344.327 91.36 346.087 92.72 346.087 97.76Z" fill="#363958"/>
<path d="M3.50977 184.773H8.90039V186H2.00195V174.625H3.50977V184.773ZM10.002 181.695C10.002 180.867 10.1634 180.122 10.4863 179.461C10.8145 178.799 11.2676 178.289 11.8457 177.93C12.429 177.57 13.0931 177.391 13.8379 177.391C14.9889 177.391 15.9186 177.789 16.627 178.586C17.3405 179.383 17.6973 180.443 17.6973 181.766V181.867C17.6973 182.69 17.5384 183.43 17.2207 184.086C16.9082 184.737 16.4577 185.245 15.8691 185.609C15.2858 185.974 14.6139 186.156 13.8535 186.156C12.7077 186.156 11.778 185.758 11.0645 184.961C10.3561 184.164 10.002 183.109 10.002 181.797V181.695ZM11.4551 181.867C11.4551 182.805 11.6712 183.557 12.1035 184.125C12.541 184.693 13.1243 184.977 13.8535 184.977C14.5879 184.977 15.1712 184.69 15.6035 184.117C16.0358 183.539 16.252 182.732 16.252 181.695C16.252 180.768 16.0306 180.018 15.5879 179.445C15.1504 178.867 14.5671 178.578 13.8379 178.578C13.1243 178.578 12.5488 178.862 12.1113 179.43C11.6738 179.997 11.4551 180.81 11.4551 181.867ZM23.5957 178.844C23.377 178.807 23.14 178.789 22.8848 178.789C21.9368 178.789 21.2936 179.193 20.9551 180V186H19.5098V177.547H20.916L20.9395 178.523C21.4134 177.768 22.0853 177.391 22.9551 177.391C23.2363 177.391 23.4499 177.427 23.5957 177.5V178.844ZM28.2832 186.156C27.1374 186.156 26.2051 185.781 25.4863 185.031C24.7676 184.276 24.4082 183.268 24.4082 182.008V181.742C24.4082 180.904 24.5671 180.156 24.8848 179.5C25.2077 178.839 25.6556 178.323 26.2285 177.953C26.8066 177.578 27.4316 177.391 28.1035 177.391C29.2025 177.391 30.0566 177.753 30.666 178.477C31.2754 179.201 31.5801 180.237 31.5801 181.586V182.188H25.8535C25.8743 183.021 26.1165 183.695 26.5801 184.211C27.0488 184.721 27.6426 184.977 28.3613 184.977C28.8717 184.977 29.304 184.872 29.6582 184.664C30.0124 184.456 30.3223 184.18 30.5879 183.836L31.4707 184.523C30.7624 185.612 29.6999 186.156 28.2832 186.156ZM28.1035 178.578C27.5202 178.578 27.0306 178.792 26.6348 179.219C26.2389 179.641 25.9941 180.234 25.9004 181H30.1348V180.891C30.0931 180.156 29.8952 179.589 29.541 179.188C29.1868 178.781 28.7077 178.578 28.1035 178.578ZM34.6191 177.547L34.6582 178.484C35.278 177.755 36.1139 177.391 37.166 177.391C38.3483 177.391 39.153 177.844 39.5801 178.75C39.8613 178.344 40.2259 178.016 40.6738 177.766C41.127 177.516 41.6608 177.391 42.2754 177.391C44.1296 177.391 45.0723 178.372 45.1035 180.336V186H43.6582V180.422C43.6582 179.818 43.5202 179.367 43.2441 179.07C42.9681 178.768 42.5046 178.617 41.8535 178.617C41.3171 178.617 40.8717 178.779 40.5176 179.102C40.1634 179.419 39.9577 179.849 39.9004 180.391V186H38.4473V180.461C38.4473 179.232 37.8457 178.617 36.6426 178.617C35.6947 178.617 35.0462 179.021 34.6973 179.828V186H33.252V177.547H34.6191ZM53.0957 186H51.5957V174.625H53.0957V186ZM62.7598 181.867C62.7598 183.154 62.4655 184.19 61.877 184.977C61.2884 185.763 60.4915 186.156 59.4863 186.156C58.4603 186.156 57.653 185.831 57.0645 185.18V189.25H55.6191V177.547H56.9395L57.0098 178.484C57.5983 177.755 58.416 177.391 59.4629 177.391C60.4785 177.391 61.2806 177.773 61.8691 178.539C62.4629 179.305 62.7598 180.37 62.7598 181.734V181.867ZM61.3145 181.703C61.3145 180.75 61.1113 179.997 60.7051 179.445C60.2988 178.893 59.7415 178.617 59.0332 178.617C58.1582 178.617 57.502 179.005 57.0645 179.781V183.82C57.4967 184.591 58.1582 184.977 59.0488 184.977C59.7415 184.977 60.291 184.703 60.6973 184.156C61.1087 183.604 61.3145 182.786 61.3145 181.703ZM69.5254 183.758C69.5254 183.367 69.377 183.065 69.0801 182.852C68.7884 182.633 68.2754 182.445 67.541 182.289C66.8118 182.133 66.2311 181.945 65.7988 181.727C65.3717 181.508 65.054 181.247 64.8457 180.945C64.6426 180.643 64.541 180.284 64.541 179.867C64.541 179.174 64.8327 178.589 65.416 178.109C66.0046 177.63 66.7546 177.391 67.666 177.391C68.6243 177.391 69.4004 177.638 69.9941 178.133C70.5931 178.628 70.8926 179.26 70.8926 180.031H69.4395C69.4395 179.635 69.2702 179.294 68.9316 179.008C68.5983 178.721 68.1764 178.578 67.666 178.578C67.14 178.578 66.7285 178.693 66.4316 178.922C66.1348 179.151 65.9863 179.451 65.9863 179.82C65.9863 180.169 66.1243 180.432 66.4004 180.609C66.6764 180.786 67.1738 180.956 67.8926 181.117C68.6165 181.279 69.2025 181.471 69.6504 181.695C70.0983 181.919 70.429 182.19 70.6426 182.508C70.8613 182.82 70.9707 183.203 70.9707 183.656C70.9707 184.411 70.6686 185.018 70.0645 185.477C69.4603 185.93 68.6764 186.156 67.7129 186.156C67.0358 186.156 66.4368 186.036 65.916 185.797C65.3952 185.557 64.9863 185.224 64.6895 184.797C64.3978 184.365 64.252 183.898 64.252 183.398H65.6973C65.7233 183.883 65.916 184.268 66.2754 184.555C66.64 184.836 67.1191 184.977 67.7129 184.977C68.2598 184.977 68.6973 184.867 69.0254 184.648C69.3587 184.424 69.5254 184.128 69.5254 183.758ZM78.0723 185.164C77.5098 185.826 76.6842 186.156 75.5957 186.156C74.6947 186.156 74.0072 185.896 73.5332 185.375C73.0645 184.849 72.8275 184.073 72.8223 183.047V177.547H74.2676V183.008C74.2676 184.289 74.7884 184.93 75.8301 184.93C76.9342 184.93 77.6686 184.518 78.0332 183.695V177.547H79.4785V186H78.1035L78.0723 185.164ZM83.041 177.547L83.0801 178.484C83.6999 177.755 84.5358 177.391 85.5879 177.391C86.7702 177.391 87.5749 177.844 88.002 178.75C88.2832 178.344 88.6478 178.016 89.0957 177.766C89.5488 177.516 90.0827 177.391 90.6973 177.391C92.5514 177.391 93.4941 178.372 93.5254 180.336V186H92.0801V180.422C92.0801 179.818 91.9421 179.367 91.666 179.07C91.39 178.768 90.9264 178.617 90.2754 178.617C89.7389 178.617 89.2936 178.779 88.9395 179.102C88.5853 179.419 88.3796 179.849 88.3223 180.391V186H86.8691V180.461C86.8691 179.232 86.2676 178.617 85.0645 178.617C84.1165 178.617 83.4681 179.021 83.1191 179.828V186H81.6738V177.547H83.041ZM101.252 186H99.8066V177.547H101.252V186ZM99.6895 175.305C99.6895 175.07 99.7598 174.872 99.9004 174.711C100.046 174.549 100.26 174.469 100.541 174.469C100.822 174.469 101.036 174.549 101.182 174.711C101.327 174.872 101.4 175.07 101.4 175.305C101.4 175.539 101.327 175.734 101.182 175.891C101.036 176.047 100.822 176.125 100.541 176.125C100.26 176.125 100.046 176.047 99.9004 175.891C99.7598 175.734 99.6895 175.539 99.6895 175.305ZM108.494 183.758C108.494 183.367 108.346 183.065 108.049 182.852C107.757 182.633 107.244 182.445 106.51 182.289C105.781 182.133 105.2 181.945 104.768 181.727C104.34 181.508 104.023 181.247 103.814 180.945C103.611 180.643 103.51 180.284 103.51 179.867C103.51 179.174 103.801 178.589 104.385 178.109C104.973 177.63 105.723 177.391 106.635 177.391C107.593 177.391 108.369 177.638 108.963 178.133C109.562 178.628 109.861 179.26 109.861 180.031H108.408C108.408 179.635 108.239 179.294 107.9 179.008C107.567 178.721 107.145 178.578 106.635 178.578C106.109 178.578 105.697 178.693 105.4 178.922C105.104 179.151 104.955 179.451 104.955 179.82C104.955 180.169 105.093 180.432 105.369 180.609C105.645 180.786 106.143 180.956 106.861 181.117C107.585 181.279 108.171 181.471 108.619 181.695C109.067 181.919 109.398 182.19 109.611 182.508C109.83 182.82 109.939 183.203 109.939 183.656C109.939 184.411 109.637 185.018 109.033 185.477C108.429 185.93 107.645 186.156 106.682 186.156C106.005 186.156 105.406 186.036 104.885 185.797C104.364 185.557 103.955 185.224 103.658 184.797C103.367 184.365 103.221 183.898 103.221 183.398H104.666C104.692 183.883 104.885 184.268 105.244 184.555C105.609 184.836 106.088 184.977 106.682 184.977C107.229 184.977 107.666 184.867 107.994 184.648C108.327 184.424 108.494 184.128 108.494 183.758ZM120.713 183.758C120.713 183.367 120.564 183.065 120.268 182.852C119.976 182.633 119.463 182.445 118.729 182.289C117.999 182.133 117.419 181.945 116.986 181.727C116.559 181.508 116.242 181.247 116.033 180.945C115.83 180.643 115.729 180.284 115.729 179.867C115.729 179.174 116.02 178.589 116.604 178.109C117.192 177.63 117.942 177.391 118.854 177.391C119.812 177.391 120.588 177.638 121.182 178.133C121.781 178.628 122.08 179.26 122.08 180.031H120.627C120.627 179.635 120.458 179.294 120.119 179.008C119.786 178.721 119.364 178.578 118.854 178.578C118.327 178.578 117.916 178.693 117.619 178.922C117.322 179.151 117.174 179.451 117.174 179.82C117.174 180.169 117.312 180.432 117.588 180.609C117.864 180.786 118.361 180.956 119.08 181.117C119.804 181.279 120.39 181.471 120.838 181.695C121.286 181.919 121.617 182.19 121.83 182.508C122.049 182.82 122.158 183.203 122.158 183.656C122.158 184.411 121.856 185.018 121.252 185.477C120.648 185.93 119.864 186.156 118.9 186.156C118.223 186.156 117.624 186.036 117.104 185.797C116.583 185.557 116.174 185.224 115.877 184.797C115.585 184.365 115.439 183.898 115.439 183.398H116.885C116.911 183.883 117.104 184.268 117.463 184.555C117.827 184.836 118.307 184.977 118.9 184.977C119.447 184.977 119.885 184.867 120.213 184.648C120.546 184.424 120.713 184.128 120.713 183.758ZM125.611 186H124.166V177.547H125.611V186ZM124.049 175.305C124.049 175.07 124.119 174.872 124.26 174.711C124.406 174.549 124.619 174.469 124.9 174.469C125.182 174.469 125.395 174.549 125.541 174.711C125.687 174.872 125.76 175.07 125.76 175.305C125.76 175.539 125.687 175.734 125.541 175.891C125.395 176.047 125.182 176.125 124.9 176.125C124.619 176.125 124.406 176.047 124.26 175.891C124.119 175.734 124.049 175.539 124.049 175.305ZM129.291 177.547L129.33 178.484C129.95 177.755 130.786 177.391 131.838 177.391C133.02 177.391 133.825 177.844 134.252 178.75C134.533 178.344 134.898 178.016 135.346 177.766C135.799 177.516 136.333 177.391 136.947 177.391C138.801 177.391 139.744 178.372 139.775 180.336V186H138.33V180.422C138.33 179.818 138.192 179.367 137.916 179.07C137.64 178.768 137.176 178.617 136.525 178.617C135.989 178.617 135.544 178.779 135.189 179.102C134.835 179.419 134.63 179.849 134.572 180.391V186H133.119V180.461C133.119 179.232 132.518 178.617 131.314 178.617C130.367 178.617 129.718 179.021 129.369 179.828V186H127.924V177.547H129.291ZM149.104 181.867C149.104 183.154 148.809 184.19 148.221 184.977C147.632 185.763 146.835 186.156 145.83 186.156C144.804 186.156 143.997 185.831 143.408 185.18V189.25H141.963V177.547H143.283L143.354 178.484C143.942 177.755 144.76 177.391 145.807 177.391C146.822 177.391 147.624 177.773 148.213 178.539C148.807 179.305 149.104 180.37 149.104 181.734V181.867ZM147.658 181.703C147.658 180.75 147.455 179.997 147.049 179.445C146.643 178.893 146.085 178.617 145.377 178.617C144.502 178.617 143.846 179.005 143.408 179.781V183.82C143.84 184.591 144.502 184.977 145.393 184.977C146.085 184.977 146.635 184.703 147.041 184.156C147.452 183.604 147.658 182.786 147.658 181.703ZM152.518 186H151.072V174H152.518V186ZM157.604 183.883L159.572 177.547H161.119L157.721 187.305C157.195 188.711 156.359 189.414 155.213 189.414L154.939 189.391L154.4 189.289V188.117L154.791 188.148C155.281 188.148 155.661 188.049 155.932 187.852C156.208 187.654 156.434 187.292 156.611 186.766L156.932 185.906L153.916 177.547H155.494L157.604 183.883ZM166.033 181.703C166.033 180.406 166.34 179.365 166.955 178.578C167.57 177.786 168.374 177.391 169.369 177.391C170.359 177.391 171.143 177.729 171.721 178.406V174H173.166V186H171.838L171.768 185.094C171.189 185.802 170.385 186.156 169.354 186.156C168.374 186.156 167.575 185.755 166.955 184.953C166.34 184.151 166.033 183.104 166.033 181.812V181.703ZM167.479 181.867C167.479 182.826 167.676 183.576 168.072 184.117C168.468 184.659 169.015 184.93 169.713 184.93C170.63 184.93 171.299 184.518 171.721 183.695V179.812C171.288 179.016 170.624 178.617 169.729 178.617C169.02 178.617 168.468 178.891 168.072 179.438C167.676 179.984 167.479 180.794 167.479 181.867ZM180.635 185.164C180.072 185.826 179.247 186.156 178.158 186.156C177.257 186.156 176.57 185.896 176.096 185.375C175.627 184.849 175.39 184.073 175.385 183.047V177.547H176.83V183.008C176.83 184.289 177.351 184.93 178.393 184.93C179.497 184.93 180.231 184.518 180.596 183.695V177.547H182.041V186H180.666L180.635 185.164ZM185.604 177.547L185.643 178.484C186.262 177.755 187.098 177.391 188.15 177.391C189.333 177.391 190.137 177.844 190.564 178.75C190.846 178.344 191.21 178.016 191.658 177.766C192.111 177.516 192.645 177.391 193.26 177.391C195.114 177.391 196.057 178.372 196.088 180.336V186H194.643V180.422C194.643 179.818 194.505 179.367 194.229 179.07C193.952 178.768 193.489 178.617 192.838 178.617C192.301 178.617 191.856 178.779 191.502 179.102C191.148 179.419 190.942 179.849 190.885 180.391V186H189.432V180.461C189.432 179.232 188.83 178.617 187.627 178.617C186.679 178.617 186.031 179.021 185.682 179.828V186H184.236V177.547H185.604ZM199.635 177.547L199.674 178.484C200.294 177.755 201.13 177.391 202.182 177.391C203.364 177.391 204.169 177.844 204.596 178.75C204.877 178.344 205.242 178.016 205.689 177.766C206.143 177.516 206.676 177.391 207.291 177.391C209.145 177.391 210.088 178.372 210.119 180.336V186H208.674V180.422C208.674 179.818 208.536 179.367 208.26 179.07C207.984 178.768 207.52 178.617 206.869 178.617C206.333 178.617 205.887 178.779 205.533 179.102C205.179 179.419 204.973 179.849 204.916 180.391V186H203.463V180.461C203.463 179.232 202.861 178.617 201.658 178.617C200.71 178.617 200.062 179.021 199.713 179.828V186H198.268V177.547H199.635ZM215.072 183.883L217.041 177.547H218.588L215.189 187.305C214.663 188.711 213.827 189.414 212.682 189.414L212.408 189.391L211.869 189.289V188.117L212.26 188.148C212.749 188.148 213.13 188.049 213.4 187.852C213.676 187.654 213.903 187.292 214.08 186.766L214.4 185.906L211.385 177.547H212.963L215.072 183.883ZM225.814 175.5V177.547H227.393V178.664H225.814V183.906C225.814 184.245 225.885 184.5 226.025 184.672C226.166 184.839 226.406 184.922 226.744 184.922C226.911 184.922 227.14 184.891 227.432 184.828V186C227.051 186.104 226.682 186.156 226.322 186.156C225.676 186.156 225.189 185.961 224.861 185.57C224.533 185.18 224.369 184.625 224.369 183.906V178.664H222.83V177.547H224.369V175.5H225.814ZM232.596 186.156C231.45 186.156 230.518 185.781 229.799 185.031C229.08 184.276 228.721 183.268 228.721 182.008V181.742C228.721 180.904 228.88 180.156 229.197 179.5C229.52 178.839 229.968 178.323 230.541 177.953C231.119 177.578 231.744 177.391 232.416 177.391C233.515 177.391 234.369 177.753 234.979 178.477C235.588 179.201 235.893 180.237 235.893 181.586V182.188H230.166C230.187 183.021 230.429 183.695 230.893 184.211C231.361 184.721 231.955 184.977 232.674 184.977C233.184 184.977 233.617 184.872 233.971 184.664C234.325 184.456 234.635 184.18 234.9 183.836L235.783 184.523C235.075 185.612 234.012 186.156 232.596 186.156ZM232.416 178.578C231.833 178.578 231.343 178.792 230.947 179.219C230.551 179.641 230.307 180.234 230.213 181H234.447V180.891C234.406 180.156 234.208 179.589 233.854 179.188C233.499 178.781 233.02 178.578 232.416 178.578ZM240.408 180.633L242.283 177.547H243.971L241.205 181.727L244.057 186H242.385L240.432 182.836L238.479 186H236.799L239.65 181.727L236.885 177.547H238.557L240.408 180.633ZM247.471 175.5V177.547H249.049V178.664H247.471V183.906C247.471 184.245 247.541 184.5 247.682 184.672C247.822 184.839 248.062 184.922 248.4 184.922C248.567 184.922 248.796 184.891 249.088 184.828V186C248.708 186.104 248.338 186.156 247.979 186.156C247.333 186.156 246.846 185.961 246.518 185.57C246.189 185.18 246.025 184.625 246.025 183.906V178.664H244.486V177.547H246.025V175.5H247.471ZM254.33 181.695C254.33 180.867 254.492 180.122 254.814 179.461C255.143 178.799 255.596 178.289 256.174 177.93C256.757 177.57 257.421 177.391 258.166 177.391C259.317 177.391 260.247 177.789 260.955 178.586C261.669 179.383 262.025 180.443 262.025 181.766V181.867C262.025 182.69 261.867 183.43 261.549 184.086C261.236 184.737 260.786 185.245 260.197 185.609C259.614 185.974 258.942 186.156 258.182 186.156C257.036 186.156 256.106 185.758 255.393 184.961C254.684 184.164 254.33 183.109 254.33 181.797V181.695ZM255.783 181.867C255.783 182.805 255.999 183.557 256.432 184.125C256.869 184.693 257.452 184.977 258.182 184.977C258.916 184.977 259.499 184.69 259.932 184.117C260.364 183.539 260.58 182.732 260.58 181.695C260.58 180.768 260.359 180.018 259.916 179.445C259.479 178.867 258.895 178.578 258.166 178.578C257.452 178.578 256.877 178.862 256.439 179.43C256.002 179.997 255.783 180.81 255.783 181.867ZM264.549 186V178.664H263.213V177.547H264.549V176.68C264.549 175.773 264.791 175.073 265.275 174.578C265.76 174.083 266.445 173.836 267.33 173.836C267.663 173.836 267.994 173.88 268.322 173.969L268.244 175.141C267.999 175.094 267.739 175.07 267.463 175.07C266.994 175.07 266.632 175.208 266.377 175.484C266.122 175.755 265.994 176.146 265.994 176.656V177.547H267.799V178.664H265.994V186H264.549ZM275.33 175.5V177.547H276.908V178.664H275.33V183.906C275.33 184.245 275.4 184.5 275.541 184.672C275.682 184.839 275.921 184.922 276.26 184.922C276.426 184.922 276.656 184.891 276.947 184.828V186C276.567 186.104 276.197 186.156 275.838 186.156C275.192 186.156 274.705 185.961 274.377 185.57C274.049 185.18 273.885 184.625 273.885 183.906V178.664H272.346V177.547H273.885V175.5H275.33ZM280.049 178.57C280.689 177.784 281.523 177.391 282.549 177.391C284.335 177.391 285.236 178.398 285.252 180.414V186H283.807V180.406C283.801 179.797 283.661 179.346 283.385 179.055C283.114 178.763 282.689 178.617 282.111 178.617C281.643 178.617 281.231 178.742 280.877 178.992C280.523 179.242 280.247 179.57 280.049 179.977V186H278.604V174H280.049V178.57ZM290.924 186.156C289.778 186.156 288.846 185.781 288.127 185.031C287.408 184.276 287.049 183.268 287.049 182.008V181.742C287.049 180.904 287.208 180.156 287.525 179.5C287.848 178.839 288.296 178.323 288.869 177.953C289.447 177.578 290.072 177.391 290.744 177.391C291.843 177.391 292.697 177.753 293.307 178.477C293.916 179.201 294.221 180.237 294.221 181.586V182.188H288.494C288.515 183.021 288.757 183.695 289.221 184.211C289.689 184.721 290.283 184.977 291.002 184.977C291.512 184.977 291.945 184.872 292.299 184.664C292.653 184.456 292.963 184.18 293.229 183.836L294.111 184.523C293.403 185.612 292.34 186.156 290.924 186.156ZM290.744 178.578C290.161 178.578 289.671 178.792 289.275 179.219C288.88 179.641 288.635 180.234 288.541 181H292.775V180.891C292.734 180.156 292.536 179.589 292.182 179.188C291.827 178.781 291.348 178.578 290.744 178.578ZM307.01 181.867C307.01 183.154 306.715 184.19 306.127 184.977C305.538 185.763 304.742 186.156 303.736 186.156C302.71 186.156 301.903 185.831 301.314 185.18V189.25H299.869V177.547H301.189L301.26 178.484C301.848 177.755 302.666 177.391 303.713 177.391C304.729 177.391 305.531 177.773 306.119 178.539C306.713 179.305 307.01 180.37 307.01 181.734V181.867ZM305.564 181.703C305.564 180.75 305.361 179.997 304.955 179.445C304.549 178.893 303.992 178.617 303.283 178.617C302.408 178.617 301.752 179.005 301.314 179.781V183.82C301.747 184.591 302.408 184.977 303.299 184.977C303.992 184.977 304.541 184.703 304.947 184.156C305.359 183.604 305.564 182.786 305.564 181.703ZM312.939 178.844C312.721 178.807 312.484 178.789 312.229 178.789C311.281 178.789 310.637 179.193 310.299 180V186H308.854V177.547H310.26L310.283 178.523C310.757 177.768 311.429 177.391 312.299 177.391C312.58 177.391 312.794 177.427 312.939 177.5V178.844ZM315.846 186H314.4V177.547H315.846V186ZM314.283 175.305C314.283 175.07 314.354 174.872 314.494 174.711C314.64 174.549 314.854 174.469 315.135 174.469C315.416 174.469 315.63 174.549 315.775 174.711C315.921 174.872 315.994 175.07 315.994 175.305C315.994 175.539 315.921 175.734 315.775 175.891C315.63 176.047 315.416 176.125 315.135 176.125C314.854 176.125 314.64 176.047 314.494 175.891C314.354 175.734 314.283 175.539 314.283 175.305ZM319.533 177.547L319.58 178.609C320.226 177.797 321.07 177.391 322.111 177.391C323.898 177.391 324.799 178.398 324.814 180.414V186H323.369V180.406C323.364 179.797 323.223 179.346 322.947 179.055C322.676 178.763 322.252 178.617 321.674 178.617C321.205 178.617 320.794 178.742 320.439 178.992C320.085 179.242 319.809 179.57 319.611 179.977V186H318.166V177.547H319.533ZM328.955 175.5V177.547H330.533V178.664H328.955V183.906C328.955 184.245 329.025 184.5 329.166 184.672C329.307 184.839 329.546 184.922 329.885 184.922C330.051 184.922 330.281 184.891 330.572 184.828V186C330.192 186.104 329.822 186.156 329.463 186.156C328.817 186.156 328.33 185.961 328.002 185.57C327.674 185.18 327.51 184.625 327.51 183.906V178.664H325.971V177.547H327.51V175.5H328.955ZM333.799 186H332.354V177.547H333.799V186ZM332.236 175.305C332.236 175.07 332.307 174.872 332.447 174.711C332.593 174.549 332.807 174.469 333.088 174.469C333.369 174.469 333.583 174.549 333.729 174.711C333.874 174.872 333.947 175.07 333.947 175.305C333.947 175.539 333.874 175.734 333.729 175.891C333.583 176.047 333.369 176.125 333.088 176.125C332.807 176.125 332.593 176.047 332.447 175.891C332.307 175.734 332.236 175.539 332.236 175.305ZM337.486 177.547L337.533 178.609C338.179 177.797 339.023 177.391 340.064 177.391C341.851 177.391 342.752 178.398 342.768 180.414V186H341.322V180.406C341.317 179.797 341.176 179.346 340.9 179.055C340.63 178.763 340.205 178.617 339.627 178.617C339.158 178.617 338.747 178.742 338.393 178.992C338.038 179.242 337.762 179.57 337.564 179.977V186H336.119V177.547H337.486ZM344.604 181.703C344.604 180.385 344.908 179.339 345.518 178.562C346.127 177.781 346.934 177.391 347.939 177.391C348.971 177.391 349.775 177.755 350.354 178.484L350.424 177.547H351.744V185.797C351.744 186.891 351.419 187.753 350.768 188.383C350.122 189.013 349.252 189.328 348.158 189.328C347.549 189.328 346.952 189.198 346.369 188.938C345.786 188.677 345.34 188.32 345.033 187.867L345.783 187C346.403 187.766 347.161 188.148 348.057 188.148C348.76 188.148 349.307 187.951 349.697 187.555C350.093 187.159 350.291 186.602 350.291 185.883V185.156C349.713 185.823 348.924 186.156 347.924 186.156C346.934 186.156 346.132 185.758 345.518 184.961C344.908 184.164 344.604 183.078 344.604 181.703ZM346.057 181.867C346.057 182.82 346.252 183.57 346.643 184.117C347.033 184.659 347.58 184.93 348.283 184.93C349.195 184.93 349.864 184.516 350.291 183.688V179.828C349.848 179.021 349.184 178.617 348.299 178.617C347.596 178.617 347.046 178.891 346.65 179.438C346.255 179.984 346.057 180.794 346.057 181.867ZM6.99414 212C6.91081 211.833 6.8431 211.536 6.79102 211.109C6.11914 211.807 5.31706 212.156 4.38477 212.156C3.55143 212.156 2.86654 211.922 2.33008 211.453C1.79883 210.979 1.5332 210.38 1.5332 209.656C1.5332 208.776 1.86654 208.094 2.5332 207.609C3.20508 207.12 4.14779 206.875 5.36133 206.875H6.76758V206.211C6.76758 205.706 6.61654 205.305 6.31445 205.008C6.01237 204.706 5.56706 204.555 4.97852 204.555C4.46289 204.555 4.0306 204.685 3.68164 204.945C3.33268 205.206 3.1582 205.521 3.1582 205.891H1.70508C1.70508 205.469 1.85352 205.062 2.15039 204.672C2.45247 204.276 2.85872 203.964 3.36914 203.734C3.88477 203.505 4.44987 203.391 5.06445 203.391C6.03841 203.391 6.80143 203.635 7.35352 204.125C7.9056 204.609 8.19206 205.279 8.21289 206.133V210.023C8.21289 210.799 8.31185 211.417 8.50977 211.875V212H6.99414ZM4.5957 210.898C5.04883 210.898 5.47852 210.781 5.88477 210.547C6.29102 210.312 6.58529 210.008 6.76758 209.633V207.898H5.63477C3.86393 207.898 2.97852 208.417 2.97852 209.453C2.97852 209.906 3.12956 210.26 3.43164 210.516C3.73372 210.771 4.12174 210.898 4.5957 210.898ZM11.8457 203.547L11.8926 204.609C12.5384 203.797 13.3822 203.391 14.4238 203.391C16.2103 203.391 17.1113 204.398 17.127 206.414V212H15.6816V206.406C15.6764 205.797 15.5358 205.346 15.2598 205.055C14.9889 204.763 14.5645 204.617 13.9863 204.617C13.5176 204.617 13.1061 204.742 12.752 204.992C12.3978 205.242 12.1217 205.57 11.9238 205.977V212H10.4785V203.547H11.8457ZM18.9551 207.703C18.9551 206.406 19.2624 205.365 19.877 204.578C20.4915 203.786 21.2962 203.391 22.291 203.391C23.2806 203.391 24.0645 203.729 24.6426 204.406V200H26.0879V212H24.7598L24.6895 211.094C24.1113 211.802 23.3066 212.156 22.2754 212.156C21.2962 212.156 20.4967 211.755 19.877 210.953C19.2624 210.151 18.9551 209.104 18.9551 207.812V207.703ZM20.4004 207.867C20.4004 208.826 20.5983 209.576 20.9941 210.117C21.39 210.659 21.9368 210.93 22.6348 210.93C23.5514 210.93 24.2207 210.518 24.6426 209.695V205.812C24.2103 205.016 23.5462 204.617 22.6504 204.617C21.9421 204.617 21.39 204.891 20.9941 205.438C20.5983 205.984 20.4004 206.794 20.4004 207.867ZM34.2676 201.5V203.547H35.8457V204.664H34.2676V209.906C34.2676 210.245 34.3379 210.5 34.4785 210.672C34.6191 210.839 34.8587 210.922 35.1973 210.922C35.3639 210.922 35.5931 210.891 35.8848 210.828V212C35.5046 212.104 35.1348 212.156 34.7754 212.156C34.1296 212.156 33.6426 211.961 33.3145 211.57C32.9863 211.18 32.8223 210.625 32.8223 209.906V204.664H31.2832V203.547H32.8223V201.5H34.2676ZM40.3066 209.883L42.2754 203.547H43.8223L40.4238 213.305C39.8978 214.711 39.0618 215.414 37.916 215.414L37.6426 215.391L37.1035 215.289V214.117L37.4941 214.148C37.9837 214.148 38.3639 214.049 38.6348 213.852C38.9108 213.654 39.1374 213.292 39.3145 212.766L39.6348 211.906L36.6191 203.547H38.1973L40.3066 209.883ZM52.2598 207.867C52.2598 209.154 51.9655 210.19 51.377 210.977C50.7884 211.763 49.9915 212.156 48.9863 212.156C47.9603 212.156 47.153 211.831 46.5645 211.18V215.25H45.1191V203.547H46.4395L46.5098 204.484C47.0983 203.755 47.916 203.391 48.9629 203.391C49.9785 203.391 50.7806 203.773 51.3691 204.539C51.9629 205.305 52.2598 206.37 52.2598 207.734V207.867ZM50.8145 207.703C50.8145 206.75 50.6113 205.997 50.2051 205.445C49.7988 204.893 49.2415 204.617 48.5332 204.617C47.6582 204.617 47.002 205.005 46.5645 205.781V209.82C46.9967 210.591 47.6582 210.977 48.5488 210.977C49.2415 210.977 49.791 210.703 50.1973 210.156C50.6087 209.604 50.8145 208.786 50.8145 207.703ZM57.6113 212.156C56.4655 212.156 55.5332 211.781 54.8145 211.031C54.0957 210.276 53.7363 209.268 53.7363 208.008V207.742C53.7363 206.904 53.8952 206.156 54.2129 205.5C54.5358 204.839 54.9837 204.323 55.5566 203.953C56.1348 203.578 56.7598 203.391 57.4316 203.391C58.5306 203.391 59.3848 203.753 59.9941 204.477C60.6035 205.201 60.9082 206.237 60.9082 207.586V208.188H55.1816C55.2025 209.021 55.4447 209.695 55.9082 210.211C56.377 210.721 56.9707 210.977 57.6895 210.977C58.1999 210.977 58.6322 210.872 58.9863 210.664C59.3405 210.456 59.6504 210.18 59.916 209.836L60.7988 210.523C60.0905 211.612 59.028 212.156 57.6113 212.156ZM57.4316 204.578C56.8483 204.578 56.3587 204.792 55.9629 205.219C55.5671 205.641 55.3223 206.234 55.2285 207H59.4629V206.891C59.4212 206.156 59.2233 205.589 58.8691 205.188C58.515 204.781 58.0358 204.578 57.4316 204.578ZM67.5098 209.758C67.5098 209.367 67.3613 209.065 67.0645 208.852C66.7728 208.633 66.2598 208.445 65.5254 208.289C64.7962 208.133 64.2155 207.945 63.7832 207.727C63.3561 207.508 63.0384 207.247 62.8301 206.945C62.627 206.643 62.5254 206.284 62.5254 205.867C62.5254 205.174 62.8171 204.589 63.4004 204.109C63.9889 203.63 64.7389 203.391 65.6504 203.391C66.6087 203.391 67.3848 203.638 67.9785 204.133C68.5775 204.628 68.877 205.26 68.877 206.031H67.4238C67.4238 205.635 67.2546 205.294 66.916 205.008C66.5827 204.721 66.1608 204.578 65.6504 204.578C65.1243 204.578 64.7129 204.693 64.416 204.922C64.1191 205.151 63.9707 205.451 63.9707 205.82C63.9707 206.169 64.1087 206.432 64.3848 206.609C64.6608 206.786 65.1582 206.956 65.877 207.117C66.6009 207.279 67.1868 207.471 67.6348 207.695C68.0827 207.919 68.4134 208.19 68.627 208.508C68.8457 208.82 68.9551 209.203 68.9551 209.656C68.9551 210.411 68.653 211.018 68.0488 211.477C67.4447 211.93 66.6608 212.156 65.6973 212.156C65.0202 212.156 64.4212 212.036 63.9004 211.797C63.3796 211.557 62.9707 211.224 62.6738 210.797C62.3822 210.365 62.2363 209.898 62.2363 209.398H63.6816C63.7077 209.883 63.9004 210.268 64.2598 210.555C64.6243 210.836 65.1035 210.977 65.6973 210.977C66.2441 210.977 66.6816 210.867 67.0098 210.648C67.3431 210.424 67.5098 210.128 67.5098 209.758ZM74.3457 212.156C73.1999 212.156 72.2676 211.781 71.5488 211.031C70.8301 210.276 70.4707 209.268 70.4707 208.008V207.742C70.4707 206.904 70.6296 206.156 70.9473 205.5C71.2702 204.839 71.7181 204.323 72.291 203.953C72.8691 203.578 73.4941 203.391 74.166 203.391C75.265 203.391 76.1191 203.753 76.7285 204.477C77.3379 205.201 77.6426 206.237 77.6426 207.586V208.188H71.916C71.9368 209.021 72.179 209.695 72.6426 210.211C73.1113 210.721 73.7051 210.977 74.4238 210.977C74.9342 210.977 75.3665 210.872 75.7207 210.664C76.0749 210.456 76.3848 210.18 76.6504 209.836L77.5332 210.523C76.8249 211.612 75.7624 212.156 74.3457 212.156ZM74.166 204.578C73.5827 204.578 73.0931 204.792 72.6973 205.219C72.3014 205.641 72.0566 206.234 71.9629 207H76.1973V206.891C76.1556 206.156 75.9577 205.589 75.6035 205.188C75.2493 204.781 74.7702 204.578 74.166 204.578ZM81.2832 201.5V203.547H82.8613V204.664H81.2832V209.906C81.2832 210.245 81.3535 210.5 81.4941 210.672C81.6348 210.839 81.8743 210.922 82.2129 210.922C82.3796 210.922 82.6087 210.891 82.9004 210.828V212C82.5202 212.104 82.1504 212.156 81.791 212.156C81.1452 212.156 80.6582 211.961 80.3301 211.57C80.002 211.18 79.8379 210.625 79.8379 209.906V204.664H78.2988V203.547H79.8379V201.5H81.2832ZM86.5176 201.5V203.547H88.0957V204.664H86.5176V209.906C86.5176 210.245 86.5879 210.5 86.7285 210.672C86.8691 210.839 87.1087 210.922 87.4473 210.922C87.6139 210.922 87.8431 210.891 88.1348 210.828V212C87.7546 212.104 87.3848 212.156 87.0254 212.156C86.3796 212.156 85.8926 211.961 85.5645 211.57C85.2363 211.18 85.0723 210.625 85.0723 209.906V204.664H83.5332V203.547H85.0723V201.5H86.5176ZM91.3613 212H89.916V203.547H91.3613V212ZM89.7988 201.305C89.7988 201.07 89.8691 200.872 90.0098 200.711C90.1556 200.549 90.3691 200.469 90.6504 200.469C90.9316 200.469 91.1452 200.549 91.291 200.711C91.4368 200.872 91.5098 201.07 91.5098 201.305C91.5098 201.539 91.4368 201.734 91.291 201.891C91.1452 202.047 90.9316 202.125 90.6504 202.125C90.3691 202.125 90.1556 202.047 90.0098 201.891C89.8691 201.734 89.7988 201.539 89.7988 201.305ZM95.0488 203.547L95.0957 204.609C95.7415 203.797 96.5853 203.391 97.627 203.391C99.4134 203.391 100.314 204.398 100.33 206.414V212H98.8848V206.406C98.8796 205.797 98.7389 205.346 98.4629 205.055C98.1921 204.763 97.7676 204.617 97.1895 204.617C96.7207 204.617 96.3092 204.742 95.9551 204.992C95.6009 205.242 95.3249 205.57 95.127 205.977V212H93.6816V203.547H95.0488ZM102.166 207.703C102.166 206.385 102.471 205.339 103.08 204.562C103.689 203.781 104.497 203.391 105.502 203.391C106.533 203.391 107.338 203.755 107.916 204.484L107.986 203.547H109.307V211.797C109.307 212.891 108.981 213.753 108.33 214.383C107.684 215.013 106.814 215.328 105.721 215.328C105.111 215.328 104.515 215.198 103.932 214.938C103.348 214.677 102.903 214.32 102.596 213.867L103.346 213C103.965 213.766 104.723 214.148 105.619 214.148C106.322 214.148 106.869 213.951 107.26 213.555C107.656 213.159 107.854 212.602 107.854 211.883V211.156C107.275 211.823 106.486 212.156 105.486 212.156C104.497 212.156 103.695 211.758 103.08 210.961C102.471 210.164 102.166 209.078 102.166 207.703ZM103.619 207.867C103.619 208.82 103.814 209.57 104.205 210.117C104.596 210.659 105.143 210.93 105.846 210.93C106.757 210.93 107.426 210.516 107.854 209.688V205.828C107.411 205.021 106.747 204.617 105.861 204.617C105.158 204.617 104.609 204.891 104.213 205.438C103.817 205.984 103.619 206.794 103.619 207.867ZM117.033 212H115.588V203.547H117.033V212ZM115.471 201.305C115.471 201.07 115.541 200.872 115.682 200.711C115.827 200.549 116.041 200.469 116.322 200.469C116.604 200.469 116.817 200.549 116.963 200.711C117.109 200.872 117.182 201.07 117.182 201.305C117.182 201.539 117.109 201.734 116.963 201.891C116.817 202.047 116.604 202.125 116.322 202.125C116.041 202.125 115.827 202.047 115.682 201.891C115.541 201.734 115.471 201.539 115.471 201.305ZM120.721 203.547L120.768 204.609C121.413 203.797 122.257 203.391 123.299 203.391C125.085 203.391 125.986 204.398 126.002 206.414V212H124.557V206.406C124.551 205.797 124.411 205.346 124.135 205.055C123.864 204.763 123.439 204.617 122.861 204.617C122.393 204.617 121.981 204.742 121.627 204.992C121.273 205.242 120.997 205.57 120.799 205.977V212H119.354V203.547H120.721ZM127.83 207.703C127.83 206.406 128.137 205.365 128.752 204.578C129.367 203.786 130.171 203.391 131.166 203.391C132.156 203.391 132.939 203.729 133.518 204.406V200H134.963V212H133.635L133.564 211.094C132.986 211.802 132.182 212.156 131.15 212.156C130.171 212.156 129.372 211.755 128.752 210.953C128.137 210.151 127.83 209.104 127.83 207.812V207.703ZM129.275 207.867C129.275 208.826 129.473 209.576 129.869 210.117C130.265 210.659 130.812 210.93 131.51 210.93C132.426 210.93 133.096 210.518 133.518 209.695V205.812C133.085 205.016 132.421 204.617 131.525 204.617C130.817 204.617 130.265 204.891 129.869 205.438C129.473 205.984 129.275 206.794 129.275 207.867ZM142.432 211.164C141.869 211.826 141.044 212.156 139.955 212.156C139.054 212.156 138.367 211.896 137.893 211.375C137.424 210.849 137.187 210.073 137.182 209.047V203.547H138.627V209.008C138.627 210.289 139.148 210.93 140.189 210.93C141.294 210.93 142.028 210.518 142.393 209.695V203.547H143.838V212H142.463L142.432 211.164ZM150.963 209.758C150.963 209.367 150.814 209.065 150.518 208.852C150.226 208.633 149.713 208.445 148.979 208.289C148.249 208.133 147.669 207.945 147.236 207.727C146.809 207.508 146.492 207.247 146.283 206.945C146.08 206.643 145.979 206.284 145.979 205.867C145.979 205.174 146.27 204.589 146.854 204.109C147.442 203.63 148.192 203.391 149.104 203.391C150.062 203.391 150.838 203.638 151.432 204.133C152.031 204.628 152.33 205.26 152.33 206.031H150.877C150.877 205.635 150.708 205.294 150.369 205.008C150.036 204.721 149.614 204.578 149.104 204.578C148.577 204.578 148.166 204.693 147.869 204.922C147.572 205.151 147.424 205.451 147.424 205.82C147.424 206.169 147.562 206.432 147.838 206.609C148.114 206.786 148.611 206.956 149.33 207.117C150.054 207.279 150.64 207.471 151.088 207.695C151.536 207.919 151.867 208.19 152.08 208.508C152.299 208.82 152.408 209.203 152.408 209.656C152.408 210.411 152.106 211.018 151.502 211.477C150.898 211.93 150.114 212.156 149.15 212.156C148.473 212.156 147.874 212.036 147.354 211.797C146.833 211.557 146.424 211.224 146.127 210.797C145.835 210.365 145.689 209.898 145.689 209.398H147.135C147.161 209.883 147.354 210.268 147.713 210.555C148.077 210.836 148.557 210.977 149.15 210.977C149.697 210.977 150.135 210.867 150.463 210.648C150.796 210.424 150.963 210.128 150.963 209.758ZM156.252 201.5V203.547H157.83V204.664H156.252V209.906C156.252 210.245 156.322 210.5 156.463 210.672C156.604 210.839 156.843 210.922 157.182 210.922C157.348 210.922 157.577 210.891 157.869 210.828V212C157.489 212.104 157.119 212.156 156.76 212.156C156.114 212.156 155.627 211.961 155.299 211.57C154.971 211.18 154.807 210.625 154.807 209.906V204.664H153.268V203.547H154.807V201.5H156.252ZM163.611 204.844C163.393 204.807 163.156 204.789 162.9 204.789C161.952 204.789 161.309 205.193 160.971 206V212H159.525V203.547H160.932L160.955 204.523C161.429 203.768 162.101 203.391 162.971 203.391C163.252 203.391 163.465 203.427 163.611 203.5V204.844ZM167.854 209.883L169.822 203.547H171.369L167.971 213.305C167.445 214.711 166.609 215.414 165.463 215.414L165.189 215.391L164.65 215.289V214.117L165.041 214.148C165.531 214.148 165.911 214.049 166.182 213.852C166.458 213.654 166.684 213.292 166.861 212.766L167.182 211.906L164.166 203.547H165.744L167.854 209.883ZM171.854 211.242C171.854 210.992 171.926 210.784 172.072 210.617C172.223 210.451 172.447 210.367 172.744 210.367C173.041 210.367 173.265 210.451 173.416 210.617C173.572 210.784 173.65 210.992 173.65 211.242C173.65 211.482 173.572 211.682 173.416 211.844C173.265 212.005 173.041 212.086 172.744 212.086C172.447 212.086 172.223 212.005 172.072 211.844C171.926 211.682 171.854 211.482 171.854 211.242Z" fill="#3E3E3E"/>
<defs>
<linearGradient id="paint0_linear_1_1021" x1="85.6816" y1="244" x2="85.6816" y2="304" gradientUnits="userSpaceOnUse">
<stop stop-color="#3D4FF3"/>
<stop offset="1" stop-color="#3543BC"/>
</linearGradient>
</defs>
</svg>
