<svg width="170" height="60" viewBox="0 0 170 60" fill="none" xmlns="http://www.w3.org/2000/svg">
<rect width="170" height="60" rx="10" fill="url(#paint0_linear_1_928)"/>
<path d="M67.1562 35V23.625H71.0547C72.3411 23.625 73.3203 23.8828 73.9922 24.3984C74.6641 24.9141 75 25.6823 75 26.7031C75 27.224 74.8594 27.6927 74.5781 28.1094C74.2969 28.526 73.8854 28.849 73.3438 29.0781C73.9583 29.2448 74.4323 29.5599 74.7656 30.0234C75.1042 30.4818 75.2734 31.0339 75.2734 31.6797C75.2734 32.7474 74.9297 33.5677 74.2422 34.1406C73.5599 34.7135 72.5807 35 71.3047 35H67.1562ZM69.1328 29.8672V33.4219H71.3281C71.9479 33.4219 72.4323 33.2682 72.7812 32.9609C73.1302 32.6536 73.3047 32.2266 73.3047 31.6797C73.3047 30.4974 72.7005 29.8932 71.4922 29.8672H69.1328ZM69.1328 28.4141H71.0703C71.6849 28.4141 72.1641 28.276 72.5078 28C72.8568 27.7188 73.0312 27.3229 73.0312 26.8125C73.0312 26.25 72.8698 25.8438 72.5469 25.5938C72.2292 25.3438 71.7318 25.2188 71.0547 25.2188H69.1328V28.4141ZM85.5703 23.625V31.2266C85.5703 32.4349 85.1823 33.3932 84.4062 34.1016C83.6354 34.8047 82.6068 35.1562 81.3203 35.1562C80.0182 35.1562 78.9844 34.8099 78.2188 34.1172C77.4531 33.4193 77.0703 32.4531 77.0703 31.2188V23.625H79.0391V31.2344C79.0391 31.9948 79.2318 32.5755 79.6172 32.9766C80.0026 33.3776 80.5703 33.5781 81.3203 33.5781C82.8411 33.5781 83.6016 32.776 83.6016 31.1719V23.625H85.5703ZM91.3984 29.0156L94.0156 23.625H96.2031L92.3906 30.8125V35H90.4062V30.8125L86.5859 23.625H88.7812L91.3984 29.0156ZM110.445 35H108.469L103.398 26.9297V35H101.422V23.625H103.398L108.484 31.7266V23.625H110.445V35ZM121.859 29.6094C121.859 30.724 121.667 31.7031 121.281 32.5469C120.896 33.3854 120.344 34.0312 119.625 34.4844C118.911 34.9323 118.089 35.1562 117.156 35.1562C116.234 35.1562 115.411 34.9323 114.688 34.4844C113.969 34.0312 113.411 33.388 113.016 32.5547C112.625 31.7214 112.427 30.7604 112.422 29.6719V29.0312C112.422 27.9219 112.617 26.9427 113.008 26.0938C113.404 25.2448 113.958 24.5964 114.672 24.1484C115.391 23.6953 116.214 23.4688 117.141 23.4688C118.068 23.4688 118.888 23.6927 119.602 24.1406C120.32 24.5833 120.875 25.224 121.266 26.0625C121.656 26.8958 121.854 27.8672 121.859 28.9766V29.6094ZM119.883 29.0156C119.883 27.7552 119.643 26.7891 119.164 26.1172C118.69 25.4453 118.016 25.1094 117.141 25.1094C116.286 25.1094 115.617 25.4453 115.133 26.1172C114.654 26.7839 114.409 27.7292 114.398 28.9531V29.6094C114.398 30.8594 114.641 31.8255 115.125 32.5078C115.615 33.1901 116.292 33.5312 117.156 33.5312C118.031 33.5312 118.703 33.1979 119.172 32.5312C119.646 31.8646 119.883 30.8906 119.883 29.6094V29.0156ZM132.75 32.1875L134.5 23.625H136.461L133.836 35H131.945L129.781 26.6953L127.57 35H125.672L123.047 23.625H125.008L126.773 32.1719L128.945 23.625H130.602L132.75 32.1875Z" fill="white"/>
<path d="M55.08 25C54.9072 24.7006 54.6598 24.4511 54.3618 24.2758C54.0639 24.1006 53.7256 24.0055 53.38 24H40.58L40 21.74C39.9414 21.5218 39.8107 21.3299 39.6291 21.1955C39.4475 21.0612 39.2258 20.9922 39 21H37C36.7348 21 36.4804 21.1053 36.2929 21.2929C36.1054 21.4804 36 21.7348 36 22C36 22.2652 36.1054 22.5195 36.2929 22.7071C36.4804 22.8946 36.7348 23 37 23H38.24L41 33.26C41.0586 33.4781 41.1893 33.67 41.3709 33.8044C41.5525 33.9388 41.7742 34.0077 42 34H51C51.1847 33.9994 51.3656 33.9477 51.5227 33.8507C51.6798 33.7536 51.8069 33.6149 51.89 33.45L55.17 26.89C55.3122 26.592 55.3783 26.2634 55.3626 25.9337C55.3469 25.6039 55.2498 25.2831 55.08 25Z" fill="white"/>
<path d="M41.5 39C42.3284 39 43 38.3284 43 37.5C43 36.6716 42.3284 36 41.5 36C40.6716 36 40 36.6716 40 37.5C40 38.3284 40.6716 39 41.5 39Z" fill="white"/>
<path d="M51.5 39C52.3284 39 53 38.3284 53 37.5C53 36.6716 52.3284 36 51.5 36C50.6716 36 50 36.6716 50 37.5C50 38.3284 50.6716 39 51.5 39Z" fill="white"/>
<defs>
<linearGradient id="paint0_linear_1_928" x1="85" y1="0" x2="85" y2="60" gradientUnits="userSpaceOnUse">
<stop stop-color="#3D4FF3"/>
<stop offset="1" stop-color="#3543BC"/>
</linearGradient>
</defs>
</svg>
